<?xml version="1.0" encoding="UTF-8"?>
<svg id="Layer_2" data-name="Layer 2" xmlns="http://www.w3.org/2000/svg" viewBox="0 0 24.16 41.77">
  <defs>
    <style>
      .cls-1 {
        fill: #f7941d;
        stroke: #f7941d;
        stroke-miterlimit: 10;
        stroke-width: .04px;
      }
    </style>
  </defs>
  <g id="Layer_1-2" data-name="Layer 1">
    <g>
      <path class="cls-1" d="M15.24,9.74c.3,0,.55.25.55.55s-.25.55-.55.55h-6.33c-.3,0-.55-.25-.55-.55s.25-.55.55-.55h6.33Z"/>
      <path class="cls-1" d="M5.9,13.28h12.35s0-6.78,0-6.78c0-1.04-.85-1.89-1.89-1.89-2.85,0-5.71,0-8.56,0-1.04,0-1.89.85-1.89,1.89v6.78Z"/>
      <path class="cls-1" d="M5.92,14.69v.55c0,1.17-.21,2.25-.62,3.26-1.03,2.52-3.2,3.71-4.39,6.64C.34,26.54.02,28.08.02,29.69c0,6.66,5.4,12.06,12.06,12.06s12.06-5.4,12.06-12.06c0-1.61-.32-3.15-.89-4.55-1.19-2.93-3.35-4.09-4.39-6.64-.41-1.01-.62-2.1-.62-3.26v-.55H5.92Z"/>
      <path class="cls-1" d="M9.39,3.51h5.39v-.79c0-.74-.3-1.41-.79-1.9-.49-.49-1.16-.79-1.9-.79s-1.42.3-1.9.79c-.49.49-.79,1.16-.79,1.9v.79Z"/>
      <path class="cls-1" d="M15.24,7.05c.3,0,.55.25.55.55s-.25.55-.55.55h-6.33c-.3,0-.55-.25-.55-.55s.25-.55.55-.55h6.33Z"/>
    </g>
  </g>
</svg>