<?xml version="1.0" encoding="UTF-8"?>
<svg id="Layer_2" data-name="Layer 2" xmlns="http://www.w3.org/2000/svg" viewBox="0 0 49.43 59.59">
  <defs>
    <style>
      .cls-1 {
        fill: #f7941d;
        stroke: #f7941d;
        stroke-miterlimit: 10;
        stroke-width: .04px;
      }

      .cls-2 {
        fill: rgba(251, 176, 64, .51);
        opacity: .65;
      }
    </style>
  </defs>
  <g id="Layer_1-2" data-name="Layer 1">
    <g>
      <g>
        <path class="cls-1" d="M27.88,9.74c.3,0,.55.25.55.55s-.25.55-.55.55h-6.33c-.3,0-.55-.25-.55-.55s.25-.55.55-.55h6.33Z"/>
        <path class="cls-1" d="M18.54,13.28h12.35s0-6.78,0-6.78c0-1.04-.85-1.89-1.89-1.89-2.85,0-5.71,0-8.56,0-1.04,0-1.89.85-1.89,1.89v6.78Z"/>
        <path class="cls-1" d="M18.55,14.69v.55c0,1.17-.21,2.25-.62,3.26-1.03,2.52-3.2,3.71-4.39,6.64-.57,1.4-.89,2.94-.89,4.55,0,6.66,5.4,12.06,12.06,12.06,6.66,0,12.06-5.4,12.06-12.06,0-1.61-.32-3.15-.89-4.55-1.19-2.93-3.35-4.09-4.39-6.64-.41-1.01-.62-2.1-.62-3.26v-.55h-12.32Z"/>
        <path class="cls-1" d="M22.02,3.51h5.39v-.79c0-.74-.3-1.41-.79-1.9-.49-.49-1.16-.79-1.9-.79s-1.42.3-1.9.79c-.49.49-.79,1.16-.79,1.9v.79Z"/>
        <path class="cls-1" d="M27.88,7.05c.3,0,.55.25.55.55s-.25.55-.55.55h-6.33c-.3,0-.55-.25-.55-.55s.25-.55.55-.55h6.33Z"/>
      </g>
      <path class="cls-2" d="M0,53.68c7.24,3.76,15.66,5.91,24.66,5.91,9.04,0,17.51-2.17,24.77-5.97l-.28.13L24.66,16,.17,53.75"/>
    </g>
  </g>
</svg>