<?xml version="1.0" encoding="UTF-8"?>
<svg id="Layer_2" data-name="Layer 2" xmlns="http://www.w3.org/2000/svg" viewBox="0 0 44.15 44.81">
  <defs>
    <style>
      .cls-1 {
        fill: #474747;
      }

      .cls-2 {
        fill: #fff;
      }

      .cls-3 {
        fill: #fefefe;
      }

      .cls-4 {
        fill: #603913;
        stroke: #603913;
        stroke-width: .23px;
      }

      .cls-4, .cls-5 {
        stroke-miterlimit: 10;
      }

      .cls-6 {
        fill: #949494;
      }

      .cls-7 {
        fill: #f7941d;
      }

      .cls-5 {
        fill: #c2b59b;
        stroke: #231f20;
        stroke-width: .06px;
      }
    </style>
  </defs>
  <g id="Layer_1-2" data-name="Layer 1">
    <g>
      <g>
        <g id="UnoOtF.tif">
          <g>
            <path class="cls-1" d="M11.65,28.55c1,.37,4.31,1.38,5.22,1.23.21-.03.35-.2.56-.19.64.03,2.05,1.14,2.41,1.69,1.64,2.47,1.99,5.31,4.58,7.26,1.01.76,2.27,1.02,3.38,1.6,1.56.83,2.95,2.38,4.65,2.9.7.22,1.49.22,2.17.45.95.32,2.51,1.77,3.48,1.2.63-.37.95-1.38.86-2.07-.03-.23-.29-.88-.27-.93.03-.06.83-.65,1.02-.83,1.14-1.13,1.1-1.8,1.8-3.03.59-1.03,1.16-1.04,1.18-2.49,0-.25-.16-1.42-.13-1.49.03-.09.45-.2.57-.3.45-.37.84-2.98.76-3.59s-.52-1.05-.55-1.56c-.02-.33.19-.8.22-1.17s-.08-.74-.05-1.1c.05-.54.64-1.41.62-1.84-.05-.92-.89-2.07-1.57-2.68-1.08-.97-3.46-.69-4.9-.86-3.51-.4-8.73-1.9-12.03-3.2-.76-.3-1.59-.8-2.34-1.05-.49-.17-1.57-.2-1.86-.34-.35-.17-.73-.84-1.52-1.14-1.7-.66-4.52-1.61-6.24-.93M13.05,14.57c-.84.53-1.48,1.28-2.01,2.09M17.84,15.12c-.04.07-.53.23-.66.32-.26.18-.92.86-1.16.86l-3.04-.91c.51-.64,1.53-1,2.33-1.06.35-.02,1.99.45,2.38.61.08.03.26.01.16.18ZM12.39,18.52c-.54.12-.86-.29-1.38-.24-.05-.09-.07-.19-.06-.29.04-.35,1.43-2.34,1.81-2.38l3.04.9c-.1.24-.34.35-.49.54-.25.32-1.1,1.79-1.3,1.89-.35.19-.62-.27-.93-.31-.05.04-.19.03-.27.06-.02,0-.05.15-.16.13-.03-.05-.02-.16-.04-.18-.05-.04-.15-.04-.22-.14ZM29.88,35.17c.22.02.66.34.87.52.97.83,1.96,2.4,3.1,2.93.66.31,1.44.37,2.05.83,1.26.95,3.38,2.93,2.14,4.57-.2-.37-.05-.72-.33-1.08-.1-.12-.72-.52-.87-.57-.22-.07-.34,0-.5-.03-.09-.01-.11-.14-.17-.14-.38.01-.71.7-.78,1.04-.67-.48-1.55-.41-2.31-.59-1.65-.39-2.43-1.33-3.77-2.21-2.87-1.9-4.72-1.52-6.71-4.91-1.5-2.57-1.53-4.69-4.37-6.22-1.85-.99-3.63-.89-4.23-3.34-.72-2.95,1.21-9.54,4.79-9.7.44-.02,3.51.51,4.03.65.96.26,2.17.96,3.15,1.35,3.18,1.24,8.23,2.63,11.61,3.02,1.02.12,3.35.04,4.13.37.73.31,1.96,1.99,1.84,2.8,0,.04-.28.81-.31.84-.27.26-.27-.09-.38-.27-1.37-2.27-4.66-2.46-7.07-2.95-.36-.07-.97-.06-1.32-.15l-.07.11c.94.26,1.92.58,2.83.81,2.37.62,4.92.66,5.72,3.53.23.82-.24,1.5-.13,2.23.07.47.37.76.48,1.2.14.58-.19,3.02-.62,3.37-.07.06-.28.16-.34.13-.11-.05-.89-1.92-.99-2.19s-.3-.81-.36-1.04c-.3-1.28.12-2.81-.83-3.9-.86-.99-2.98-1.52-4.15-1.87-.35-.11-2.95-.92-3.06-.79-.13.17.17.17.22.19,1.77.85,3.64,1.09,5.37,1.97,2.24,1.14,1.52,1.92,1.86,3.96.37,2.19,1.93,3.76,1.71,6.09-.04.46-.11.66-.48.97-.1-.76-.4-1.31-.87-1.9-.57-.72-1.43-1.24-1.98-1.88s-.82-1.52-1.43-2.14l-.46-.34c.03.07.01.19.09.36.32.77.78,1.65,1.3,2.31.74.94,2.13,1.67,2.64,2.8.64,1.42-.69,3.79-1.77,4.73-.18.16-.64.6-.87.46-.08-.05-1.19-1.3-1.22-1.39-.17-.42.1-1.09-.1-1.52.17.08.73.39.53-.06-.7-.63-1.19-1.45-1.84-2.12-.39-.4-1.73-1.6-2.21-1.76-.69-.23-1.95.19-2.41.72-.06.07,0,.19-.07.21-.06.01-1.06-.25-1.16-.29l-.07.07.13.2ZM12.69,19.85c-.22.3-1.13.29-1.09-.4.06-1,1.82-.61,1.09.4ZM11.3,21.43c-.31-.1-.28-1.09.42-1.14.55-.04.75.81.45,1.13-.43.43-.96-.54-.07-.56-.21-.56-.98-.22-.78.32.03.08.29-.07.24.19-.08,0-.2.07-.26.05ZM9.64,21.65l.28-.02,2.98.91c-.22,1.95-.2,3.85.69,5.65-1.12-.47-2.58-.34-3.27-1.47-.94-1.53-.8-3.37-.68-5.07ZM33.27,37.64c-.29-.27-1.73-1.73-1.83-1.96-.09-.22-.02-.5.19-.62.17-.1,1.39-.39,1.58-.38.14,0,.82.48.86.59.08.21-.31.33-.44.48-.54.63-.38,1.36-.08,2.05-.07.02-.24-.12-.28-.16ZM36.28,39.21s-.31-.3-.49-.39c-.42-.22-1.27-.4-1.5-.68-.34-.4-.76-1.43-.5-1.92.14-.27.64-.56.94-.42.24.12,1.62,1.66,1.73,1.93.07.16.12,1.37.07,1.43-.03.03-.2.06-.25.05ZM37.11,42.86c.58.36.8,1.56.04,1.36-.25-.06-1.37-.69-1.4-.91-.03-.17.14-.65.34-.72.22-.08.83.14,1.02.26Z"/>
            <path class="cls-2" d="M34.47,21.93c.35.09.96.08,1.32.15,2.41.49,5.7.67,7.07,2.95.11.18.11.53.38.27.03-.03.31-.8.31-.84.12-.81-1.12-2.49-1.84-2.8-.78-.33-3.12-.25-4.13-.37-3.38-.39-8.43-1.78-11.61-3.02-.98-.38-2.19-1.09-3.15-1.35-.52-.14-3.6-.67-4.03-.65-3.57.16-5.5,6.75-4.79,9.7.6,2.45,2.38,2.34,4.23,3.34,2.84,1.53,2.87,3.65,4.37,6.22,1.98,3.39,3.83,3,6.71,4.91,1.34.89,2.12,1.82,3.77,2.21.77.18,1.65.11,2.31.59.06-.34.4-1.03.78-1.04.06,0,.08.13.17.14.16.02.28-.04.5.03.15.05.78.45.87.57.28.36.13.71.33,1.08,1.24-1.64-.88-3.62-2.14-4.57-.61-.46-1.39-.53-2.05-.83-1.14-.53-2.13-2.09-3.1-2.93-.21-.18-.65-.5-.87-.52-.29-.02-.24-.06-.38-.09-.16-.03-1.18-.09-1.19-.15-.06-.25.32-.21.44-.22.17-.01.85,0,.96.02s.09.16.1.17c.1.04,1.1.3,1.16.29.06-.01,0-.14.07-.21.46-.54,1.72-.95,2.41-.72.48.16,1.82,1.36,2.21,1.76.65.67,1.14,1.49,1.84,2.12.2.46-.36.14-.53.06.2.44-.07,1.1.1,1.52.03.09,1.14,1.34,1.22,1.39.23.14.69-.31.87-.46,1.08-.94,2.41-3.31,1.77-4.73-.51-1.14-1.9-1.87-2.64-2.8-.52-.66-.98-1.54-1.3-2.31-.23.11-.21-.07-.3-.19-.25-.35-.52-.67-.75-1.02.08-.18.26,0,.34.07.31.22.5.44.63.79l.46.34c.61.61.87,1.48,1.43,2.14s1.42,1.17,1.98,1.88c.47.59.76,1.14.87,1.9.37-.31.44-.51.48-.97.22-2.33-1.34-3.89-1.71-6.09-.34-2.04.38-2.83-1.86-3.96-1.74-.88-3.6-1.12-5.37-1.97-.05-.02-.35-.02-.22-.19.11-.14,2.7.68,3.06.79,1.17.35,3.28.88,4.15,1.87.95,1.09.53,2.62.83,3.9.05.23.26.79.36,1.04s.89,2.13.99,2.19c.06.03.27-.07.34-.13.43-.35.76-2.79.62-3.37-.11-.44-.41-.73-.48-1.2-.11-.72.36-1.4.13-2.23-.81-2.87-3.36-2.91-5.72-3.53-.91-.24-1.89-.56-2.83-.81-.62-.17-1.18-.18-1.83-.45-.12-.05-.22.06-.22-.19.15-.18,1.71.29,2.02.37.09.02.1.16.1.17ZM30.84,22.8l.02.09c-.07-.02-.07-.05-.02-.09ZM32.69,23.59c-.26.03-1.43-.47-1.68-.68.03-.15.22-.04.32-.02.58.14.86.21,1.33.52.03.02.14-.09.19,0,.07.15,0,.16-.15.18Z"/>
            <path class="cls-3" d="M36.28,39.21c.06.02.23-.02.25-.05.05-.05,0-1.27-.07-1.43-.11-.27-1.49-1.81-1.73-1.93-.29-.15-.8.15-.94.42-.25.49.17,1.52.5,1.92.23.27,1.08.46,1.5.68.17.09.46.38.49.39Z"/>
            <path class="cls-3" d="M33.27,37.64s.21.18.28.16c-.3-.7-.46-1.43.08-2.05.13-.15.52-.27.44-.48-.04-.11-.72-.58-.86-.59-.19,0-1.41.29-1.58.38-.21.12-.28.4-.19.62.1.23,1.54,1.69,1.83,1.96Z"/>
            <path class="cls-3" d="M37.11,42.86c-.2-.12-.8-.34-1.02-.26-.19.07-.36.55-.34.72.03.22,1.16.85,1.4.91.76.2.54-1-.04-1.36Z"/>
            <path class="cls-1" d="M12.39,18.52c.07.1.18.1.22.14l.2.05c.08-.03.22-.03.27-.06.17-.12.49-.52.47-.75-.07-.71-1.77-.26-1.16.63ZM12.53,18.3s.66-.25.79-.28c.01,0-.03.25-.09.31-.18.18-.86.21-.69-.02Z"/>
            <path class="cls-1" d="M11.3,21.43c.06.02.18-.05.26-.05.05-.25-.21-.11-.24-.19-.2-.55.57-.89.78-.32-.89.02-.36.99.07.56.31-.32.1-1.17-.45-1.13-.7.05-.73,1.04-.42,1.14Z"/>
            <path class="cls-6" d="M34.47,21.93s-.01-.14-.1-.17c-.3-.08-1.87-.55-2.02-.37,0,.25.11.14.22.19.65.28,1.21.28,1.83.45l.07-.11Z"/>
            <path class="cls-6" d="M29.82,34.91s.02-.13-.1-.17-.8-.04-.96-.02c-.13,0-.51-.02-.44.22.02.06,1.04.12,1.19.15.14.02.09.06.38.09l-.13-.2.07-.07Z"/>
            <path class="cls-6" d="M36.91,30.45c-.12-.35-.31-.57-.63-.79-.09-.06-.27-.25-.34-.07.23.36.51.68.75,1.02.09.12.07.3.3.19-.07-.17-.06-.28-.09-.36Z"/>
            <path class="cls-1" d="M12.62,18.66s.01.13.04.18c.11.02.14-.12.16-.13l-.2-.05Z"/>
            <path class="cls-6" d="M32.65,23.41c-.46-.31-.74-.38-1.33-.52-.09-.02-.28-.13-.32.02.26.21,1.42.72,1.68.68l-.04-.18Z"/>
            <path class="cls-1" d="M32.65,23.41l.04.18c.15-.02.22-.03.15-.18-.05-.1-.16.02-.19,0Z"/>
            <path class="cls-6" d="M30.84,22.8c-.05.04-.04.07.02.09l-.02-.09Z"/>
            <path class="cls-1" d="M14.25,17.25c.13.04.41.52.7.02.37-.65-.18-.46-.42-.55-.09-.03-.13-.17-.27-.2-.57-.11-.84.75-.39.78.12,0,.26-.08.37-.05Z"/>
            <path class="cls-1" d="M12.53,18.3c-.17.23.51.2.69.02.06-.06.11-.3.09-.31-.12.03-.76.25-.79.28Z"/>
          </g>
        </g>
        <g>
          <path class="cls-5" d="M9.04,20.23s.24,2.72.76,4.18.95,3.29,1.81,4.04,4.26,1.78,5,1.52c.73-.26,1.06-.38,1.06-.38,0,0-2.8-1.05-3.21-1.8-.54-1-1.22-2.44-.92-3.79.3-1.35.59-2.59.59-2.59l-5.08-1.18Z"/>
          <path class="cls-7" d="M9.04,20.23s1.19-2.87,2.24-4.25c.97-1.27,2.76-2.55,3.29-2.54s5.06.99,5.06.99c0,0-2.12,1.37-3.4,3.05-.82,1.08-2.11,3.92-2.11,3.92l-5.08-1.18Z"/>
          <path class="cls-5" d="M19.63,14.44l.38.89s-2.19,1.36-3.38,3.01c-1.43,1.99-2.5,3.71-2.71,4.18s.19-1.11.19-1.11c0,0,.85-2.42,2.25-4.1,1.67-1.99,3.26-2.88,3.26-2.88Z"/>
          <path class="cls-7" d="M16.19,17.47c-.32.42-.76,1.03-1.11,1.71-.55,1.07-1.01,2.21-1.01,2.21l-5.03-1.16s1.19-2.87,2.24-4.25c0,0,1.25.12,2.41.46,1.54.47,2.5,1.02,2.5,1.02"/>
        </g>
      </g>
      <g>
        <line class="cls-4" x1="14.91" y1="4.19" x2="14.25" y2="17.04"/>
        <line class="cls-4" x1="13.66" y1="5.82" x2="14.25" y2="17.04"/>
        <line class="cls-4" x1="11.83" y1="6.55" x2="14.25" y2="17.04"/>
        <line class="cls-4" x1="10.2" y1="7.49" x2="14.25" y2="17.04"/>
        <line class="cls-4" x1="8.42" y1="8.17" x2="14.25" y2="17.04"/>
        <line class="cls-4" x1="6.53" y1="8.81" x2="14.25" y2="17.04"/>
        <line class="cls-4" x1="4.55" y1="8.42" x2="14.25" y2="17.04"/>
        <line class="cls-4" x1="2.65" y1="8.42" x2="14.25" y2="17.04"/>
        <line class="cls-4" x1=".07" y1="6.55" x2="14.25" y2="17.04"/>
        <line class="cls-4" x1=".5" y1="4.19" x2="14.25" y2="17.04"/>
        <line class="cls-4" x1="1.78" y1="2.93" x2="14.25" y2="17.04"/>
        <line class="cls-4" x1="3.3" y1="2.16" x2="14.25" y2="17.04"/>
        <line class="cls-4" x1="4.87" y1="1.15" x2="14.25" y2="17.04"/>
        <line class="cls-4" x1="7.39" y1=".21" x2="14.25" y2="17.04"/>
        <line class="cls-4" x1="9.93" y1=".21" x2="14.25" y2="17.04"/>
        <line class="cls-4" x1="11.83" y1=".21" x2="14.25" y2="17.04"/>
        <line class="cls-4" x1="13.47" y1="0" x2="14.25" y2="17.04"/>
      </g>
    </g>
  </g>
</svg>