<?xml version="1.0" encoding="UTF-8"?>
<svg id="Layer_2" data-name="Layer 2" xmlns="http://www.w3.org/2000/svg" xmlns:xlink="http://www.w3.org/1999/xlink" viewBox="0 0 58.59 75.36">
  <defs>
    <style>
      .cls-1 {
        filter: url(#outer-glow-3);
        stroke-width: .75px;
      }

      .cls-1, .cls-2, .cls-3, .cls-4, .cls-5, .cls-6, .cls-7 {
        stroke-miterlimit: 10;
      }

      .cls-1, .cls-2, .cls-3, .cls-6 {
        stroke: #f7941d;
      }

      .cls-1, .cls-4, .cls-6, .cls-7 {
        fill: none;
      }

      .cls-2 {
        stroke-width: .03px;
      }

      .cls-2, .cls-3 {
        fill: #f7941d;
      }

      .cls-3 {
        opacity: .42;
        stroke-width: .63px;
      }

      .cls-4 {
        filter: url(#outer-glow-2);
        opacity: .27;
        stroke: #ef4136;
        stroke-width: 3.02px;
      }

      .cls-5 {
        fill: #fbb040;
        stroke: #f15a29;
        stroke-width: .41px;
      }

      .cls-6 {
        stroke-width: 1.77px;
      }

      .cls-7 {
        filter: url(#outer-glow-1);
        stroke: #fff;
        stroke-width: 9px;
      }
    </style>
    <filter id="outer-glow-1" x="2.17" y="0" width="55.44" height="75.36" filterUnits="userSpaceOnUse">
      <feOffset dx="0" dy="0"/>
      <feGaussianBlur result="blur" stdDeviation="1.51"/>
      <feFlood flood-color="#ef3e72" flood-opacity=".81"/>
      <feComposite in2="blur" operator="in"/>
      <feComposite in="SourceGraphic"/>
    </filter>
    <filter id="outer-glow-2" x="25.69" y="2.88" width="28.8" height="36.96" filterUnits="userSpaceOnUse">
      <feOffset dx="0" dy="0"/>
      <feGaussianBlur result="blur-2" stdDeviation="1.51"/>
      <feFlood flood-color="#ef3e72" flood-opacity=".81"/>
      <feComposite in2="blur-2" operator="in"/>
      <feComposite in="SourceGraphic"/>
    </filter>
    <filter id="outer-glow-3" x="26.41" y="4.08" width="28.32" height="34.8" filterUnits="userSpaceOnUse">
      <feOffset dx="0" dy="0"/>
      <feGaussianBlur result="blur-3" stdDeviation="1.51"/>
      <feFlood flood-color="#231f20" flood-opacity=".81"/>
      <feComposite in2="blur-3" operator="in"/>
      <feComposite in="SourceGraphic"/>
    </filter>
  </defs>
  <g id="Layer_1-2" data-name="Layer 1">
    <g>
      <g>
        <path class="cls-2" d="M15.98,10.46c.25-.4.77-.52,1.17-.27.4.25.52.77.27,1.17l-5.16,8.32c-.25.4-.77.52-1.17.27-.4-.25-.52-.77-.27-1.17l5.16-8.32Z"/>
        <path class="cls-6" d="M13.03,25.62l10.06-16.23L14.18,3.87c-1.37-.85-3.18-.42-4.03.95-2.32,3.75-4.65,7.5-6.97,11.25-.85,1.37-.42,3.19.95,4.03l8.91,5.52Z"/>
        <path class="cls-3" d="M14.89,26.75l.72.44c1.53.95,2.79,2.11,3.78,3.47,2.48,3.4,2.28,7.23,5.16,11.18,1.38,1.89,3.14,3.56,5.26,4.87,8.75,5.42,20.24,2.73,25.67-6.03,5.42-8.75,2.73-20.25-6.03-25.67-2.12-1.31-4.4-2.15-6.7-2.54-4.82-.82-8.11,1.07-12.31.36-1.66-.28-3.26-.9-4.79-1.85l-.72-.44-10.04,16.2Z"/>
        <path class="cls-2" d="M3.03,13.09l4.39-7.08-1.04-.65c-.97-.6-2.11-.75-3.14-.51-1.04.24-1.99.88-2.59,1.85S-.12,8.82.12,9.85c.24,1.04.88,1.99,1.86,2.59l1.04.65Z"/>
        <path class="cls-2" d="M12.45,8.27c.25-.4.77-.52,1.17-.27s.52.77.27,1.17l-5.16,8.32c-.25.4-.77.52-1.17.27s-.52-.77-.27-1.17l5.16-8.32Z"/>
      </g>
      <path class="cls-7" d="M31.4,13.29c2.7-2.85,6.68-4.44,10.6-4.22,1.41.08,2.85.4,3.97,1.26,1.85,1.41,2.41,3.97,2.34,6.29-.2,6.58-4.33,12.3-8.28,17.56-1.98,2.63-3.96,5.26-5.93,7.89,4.19-3.51,10.61-4.06,15.34-1.31"/>
      <g>
        <path class="cls-4" d="M31.4,13.29c2.7-2.85,6.68-4.44,10.6-4.22,1.41.08,2.85.4,3.97,1.26,1.85,1.41,2.41,3.97,2.34,6.29-.2,6.58-4.33,12.3-8.28,17.56"/>
        <path class="cls-1" d="M31.4,13.29c2.7-2.85,6.68-4.44,10.6-4.22,1.41.08,2.85.4,3.97,1.26,1.85,1.41,2.41,3.97,2.34,6.29-.15,4.75-2.34,9.06-5.04,13.07-1.04,1.54-2.14,3.03-3.24,4.49"/>
        <circle class="cls-5" cx="33.78" cy="11.28" r=".65"/>
        <circle class="cls-5" cx="42.78" cy="30.41" r=".65"/>
      </g>
    </g>
  </g>
</svg>